<svg width="250" height="34" viewBox="0 0 250 34" fill="none" xmlns="http://www.w3.org/2000/svg">
<path d="M11.888 14.256C13.36 14.5333 14.5547 15.0773 15.472 15.888C16.4107 16.6987 16.88 17.9147 16.88 19.536C16.88 21.904 16.0267 23.5787 14.32 24.56C12.6347 25.52 10.2667 26 7.216 26H0.0800002V3.824H6.352C9.46667 3.824 11.8453 4.272 13.488 5.168C15.1307 6.04267 15.952 7.48267 15.952 9.488C15.952 10.7893 15.5573 11.8453 14.768 12.656C14 13.4453 13.04 13.9787 11.888 14.256ZM5.328 7.536V12.688H7.28C9.49867 12.688 10.608 11.792 10.608 10C10.608 9.104 10.3093 8.47467 9.712 8.112C9.11467 7.728 8.16533 7.536 6.864 7.536H5.328ZM7.248 22.192C8.63467 22.192 9.68 21.9893 10.384 21.584C11.1093 21.1573 11.472 20.3787 11.472 19.248C11.472 17.2 10.192 16.176 7.632 16.176H5.328V22.192H7.248ZM28.95 8.528C29.5687 8.528 30.134 8.60267 30.646 8.752L29.846 13.648C29.206 13.4987 28.694 13.424 28.31 13.424C27.3073 13.424 26.5393 13.776 26.006 14.48C25.494 15.1627 25.0887 16.1973 24.79 17.584V26H19.734V9.008H24.15L24.566 12.304C24.95 11.1307 25.526 10.2133 26.294 9.552C27.0833 8.86933 27.9687 8.528 28.95 8.528ZM46.9138 26H42.5298L42.3058 23.856C41.0684 25.648 39.3511 26.544 37.1538 26.544C35.5964 26.544 34.4124 26.0747 33.6018 25.136C32.8124 24.1973 32.4178 22.8853 32.4178 21.2V9.008H37.4738V20.56C37.4738 21.392 37.6018 21.9787 37.8578 22.32C38.1351 22.64 38.5511 22.8 39.1058 22.8C40.1724 22.8 41.0898 22.1387 41.8578 20.816V9.008H46.9138V26ZM60.8423 8.464C62.3143 8.464 63.4663 8.912 64.2983 9.808C65.1303 10.704 65.5463 11.9627 65.5463 13.584V26H60.4903V14.448C60.4903 13.5947 60.3516 13.008 60.0743 12.688C59.8183 12.3467 59.4236 12.176 58.8903 12.176C57.8663 12.176 56.8849 12.912 55.9463 14.384V26H50.8903V9.008H55.3063L55.6583 11.024C56.3836 10.1707 57.1623 9.53067 57.9943 9.104C58.8476 8.67733 59.7969 8.464 60.8423 8.464ZM76.719 8.464C79.3217 8.464 81.359 9.264 82.831 10.864C84.303 12.4427 85.039 14.6613 85.039 17.52C85.039 19.3333 84.6977 20.9227 84.015 22.288C83.3537 23.632 82.3937 24.6773 81.135 25.424C79.8977 26.1707 78.4257 26.544 76.719 26.544C74.1377 26.544 72.1003 25.7547 70.607 24.176C69.135 22.576 68.399 20.3467 68.399 17.488C68.399 15.6747 68.7297 14.096 69.391 12.752C70.0737 11.3867 71.0337 10.3307 72.271 9.584C73.5297 8.83733 75.0123 8.464 76.719 8.464ZM76.719 12.176C75.695 12.176 74.927 12.6133 74.415 13.488C73.903 14.3413 73.647 15.6747 73.647 17.488C73.647 19.344 73.8923 20.6987 74.383 21.552C74.895 22.4053 75.6737 22.832 76.719 22.832C77.743 22.832 78.511 22.4053 79.023 21.552C79.535 20.6773 79.791 19.3333 79.791 17.52C79.791 15.664 79.535 14.3093 79.023 13.456C78.5323 12.6027 77.7643 12.176 76.719 12.176ZM120.44 3.824L116.728 26H109.912L107.16 9.072L104.248 26H97.5923L93.9443 3.824H99.1923L101.4 22.032L104.472 3.824H109.976L112.856 22.032L115.448 3.824H120.44ZM137.238 17.168C137.238 17.872 137.206 18.48 137.142 18.992H126.614C126.784 20.4213 127.19 21.424 127.83 22C128.47 22.576 129.355 22.864 130.486 22.864C131.168 22.864 131.83 22.7467 132.47 22.512C133.11 22.256 133.803 21.872 134.55 21.36L136.63 24.176C134.646 25.7547 132.438 26.544 130.006 26.544C127.254 26.544 125.142 25.7333 123.67 24.112C122.198 22.4907 121.462 20.3147 121.462 17.584C121.462 15.856 121.771 14.3093 122.39 12.944C123.008 11.5573 123.915 10.4693 125.11 9.68C126.304 8.86933 127.734 8.464 129.398 8.464C131.851 8.464 133.771 9.232 135.158 10.768C136.544 12.304 137.238 14.4373 137.238 17.168ZM132.278 15.728C132.235 13.1253 131.318 11.824 129.526 11.824C128.651 11.824 127.968 12.144 127.478 12.784C127.008 13.424 126.72 14.48 126.614 15.952H132.278V15.728ZM144.59 26.544C143.118 26.544 141.966 26.128 141.134 25.296C140.323 24.4427 139.918 23.2373 139.918 21.68V2.256L144.974 1.712V21.488C144.974 22.192 145.262 22.544 145.838 22.544C146.136 22.544 146.414 22.4907 146.67 22.384L147.662 25.968C146.744 26.352 145.72 26.544 144.59 26.544ZM154.09 26.544C152.618 26.544 151.466 26.128 150.634 25.296C149.823 24.4427 149.418 23.2373 149.418 21.68V2.256L154.474 1.712V21.488C154.474 22.192 154.762 22.544 155.338 22.544C155.636 22.544 155.914 22.4907 156.17 22.384L157.162 25.968C156.244 26.352 155.22 26.544 154.09 26.544ZM164.134 9.008V26H159.078V9.008H164.134ZM161.574 0.0479984C162.448 0.0479984 163.163 0.325332 163.718 0.879999C164.294 1.41333 164.582 2.096 164.582 2.928C164.582 3.76 164.294 4.45333 163.718 5.008C163.163 5.54133 162.448 5.808 161.574 5.808C160.699 5.808 159.984 5.54133 159.43 5.008C158.875 4.45333 158.598 3.76 158.598 2.928C158.598 2.096 158.875 1.41333 159.43 0.879999C159.984 0.325332 160.699 0.0479984 161.574 0.0479984ZM178.061 8.464C179.533 8.464 180.685 8.912 181.517 9.808C182.349 10.704 182.765 11.9627 182.765 13.584V26H177.709V14.448C177.709 13.5947 177.57 13.008 177.293 12.688C177.037 12.3467 176.642 12.176 176.109 12.176C175.085 12.176 174.104 12.912 173.165 14.384V26H168.109V9.008H172.525L172.877 11.024C173.602 10.1707 174.381 9.53067 175.213 9.104C176.066 8.67733 177.016 8.464 178.061 8.464ZM202.226 10C201.116 10.448 199.484 10.672 197.33 10.672C198.439 11.1413 199.25 11.7173 199.762 12.4C200.274 13.0827 200.53 13.968 200.53 15.056C200.53 16.144 200.242 17.1253 199.666 18C199.09 18.8533 198.258 19.5253 197.17 20.016C196.103 20.5067 194.844 20.752 193.394 20.752C192.711 20.752 192.06 20.688 191.442 20.56C191.271 20.6453 191.132 20.784 191.026 20.976C190.94 21.1467 190.898 21.328 190.898 21.52C190.898 21.84 191.015 22.096 191.25 22.288C191.506 22.4587 192.007 22.544 192.754 22.544H195.314C196.615 22.544 197.756 22.7573 198.738 23.184C199.719 23.6107 200.476 24.1973 201.01 24.944C201.543 25.6907 201.81 26.5333 201.81 27.472C201.81 29.2427 201.042 30.6187 199.506 31.6C197.991 32.6027 195.794 33.104 192.914 33.104C190.844 33.104 189.212 32.88 188.018 32.432C186.823 32.0053 185.98 31.3973 185.49 30.608C185.02 29.8187 184.786 28.8267 184.786 27.632H189.33C189.33 28.144 189.426 28.5493 189.618 28.848C189.831 29.1467 190.204 29.3707 190.738 29.52C191.271 29.6693 192.039 29.744 193.042 29.744C194.428 29.744 195.388 29.5733 195.922 29.232C196.455 28.912 196.722 28.4427 196.722 27.824C196.722 27.312 196.519 26.9067 196.114 26.608C195.708 26.3093 195.1 26.16 194.29 26.16H191.826C190.076 26.16 188.764 25.8507 187.89 25.232C187.036 24.592 186.61 23.7813 186.61 22.8C186.61 22.1813 186.791 21.584 187.154 21.008C187.516 20.4107 188.007 19.92 188.626 19.536C187.559 18.96 186.78 18.288 186.29 17.52C185.82 16.7307 185.586 15.7813 185.586 14.672C185.586 12.7733 186.268 11.2693 187.634 10.16C188.999 9.02933 190.802 8.464 193.042 8.464C194.748 8.50667 196.188 8.336 197.362 7.952C198.556 7.568 199.783 7.00267 201.042 6.256L202.226 10ZM193.17 11.792C192.38 11.792 191.751 12.048 191.282 12.56C190.834 13.0507 190.61 13.7333 190.61 14.608C190.61 15.5253 190.834 16.24 191.282 16.752C191.751 17.2427 192.38 17.488 193.17 17.488C194.002 17.488 194.631 17.2427 195.058 16.752C195.506 16.2613 195.73 15.5253 195.73 14.544C195.73 12.7093 194.876 11.792 193.17 11.792ZM214.859 25.2C214.24 25.6267 213.515 25.9573 212.683 26.192C211.872 26.4267 211.061 26.544 210.251 26.544C206.539 26.5227 204.683 24.4747 204.683 20.4V12.528H202.283V9.008H204.683V5.328L209.739 4.752V9.008H213.643L213.099 12.528H209.739V20.336C209.739 21.1253 209.867 21.6907 210.123 22.032C210.379 22.3733 210.784 22.544 211.339 22.544C211.915 22.544 212.523 22.3627 213.163 22L214.859 25.2ZM223.344 8.464C225.947 8.464 227.984 9.264 229.456 10.864C230.928 12.4427 231.664 14.6613 231.664 17.52C231.664 19.3333 231.323 20.9227 230.64 22.288C229.979 23.632 229.019 24.6773 227.76 25.424C226.523 26.1707 225.051 26.544 223.344 26.544C220.763 26.544 218.725 25.7547 217.232 24.176C215.76 22.576 215.024 20.3467 215.024 17.488C215.024 15.6747 215.355 14.096 216.016 12.752C216.699 11.3867 217.659 10.3307 218.896 9.584C220.155 8.83733 221.637 8.464 223.344 8.464ZM223.344 12.176C222.32 12.176 221.552 12.6133 221.04 13.488C220.528 14.3413 220.272 15.6747 220.272 17.488C220.272 19.344 220.517 20.6987 221.008 21.552C221.52 22.4053 222.299 22.832 223.344 22.832C224.368 22.832 225.136 22.4053 225.648 21.552C226.16 20.6773 226.416 19.3333 226.416 17.52C226.416 15.664 226.16 14.3093 225.648 13.456C225.157 12.6027 224.389 12.176 223.344 12.176ZM244.624 8.464C246.096 8.464 247.248 8.912 248.08 9.808C248.912 10.704 249.328 11.9627 249.328 13.584V26H244.272V14.448C244.272 13.5947 244.133 13.008 243.856 12.688C243.6 12.3467 243.205 12.176 242.672 12.176C241.648 12.176 240.666 12.912 239.728 14.384V26H234.672V9.008H239.088L239.44 11.024C240.165 10.1707 240.944 9.53067 241.776 9.104C242.629 8.67733 243.578 8.464 244.624 8.464Z" fill="black"/>
</svg>
